<svg width="16" height="16" viewBox="0 0 16 16" fill="none" xmlns="http://www.w3.org/2000/svg">
<g clip-path="url(#clip0)">
<path d="M14.6087 15.0344L13.7509 4.41914C13.734 4.20973 13.5591 4.04839 13.349 4.04839H11.0461V3.5379C11.0461 1.8628 9.7013 0.5 8.02614 0.5H7.97291C6.2978 0.5 4.91711 1.8628 4.91711 3.5379V4.04839H2.65006C2.43996 4.04839 2.26506 4.20973 2.24813 4.41914L1.38791 15.0643C1.37883 15.1766 1.41711 15.2874 1.49345 15.3702C1.56979 15.4529 1.67732 15.5 1.78985 15.5H14.2092C14.2095 15.5 14.21 15.5 14.2103 15.5C14.433 15.5 14.6135 15.3195 14.6135 15.0968C14.6135 15.0755 14.6119 15.0547 14.6087 15.0344ZM5.72356 3.5379C5.72356 2.30747 6.74248 1.30645 7.97291 1.30645H8.02614C9.25657 1.30645 10.2397 2.30747 10.2397 3.5379V4.04839H5.72356V3.5379Z" fill="white"/>
</g>
<defs>
<clipPath id="clip0">
<rect width="15" height="15" fill="white" transform="translate(0.5 0.5)"/>
</clipPath>
</defs>
</svg>
