<svg width="30" height="30" viewBox="0 0 30 30" fill="none" xmlns="http://www.w3.org/2000/svg">
<circle cx="15" cy="15" r="15" fill="#DC5B51"/>
<g clip-path="url(#clip0)">
<path d="M18.5156 8.37891C17.7017 8.37891 16.9554 8.63684 16.2976 9.14555C15.667 9.63325 15.2472 10.2544 15 10.7061C14.7528 10.2544 14.333 9.63325 13.7024 9.14555C13.0446 8.63684 12.2983 8.37891 11.4844 8.37891C9.21293 8.37891 7.5 10.2368 7.5 12.7006C7.5 15.3623 9.637 17.1835 12.8721 19.9404C13.4215 20.4086 14.0442 20.9393 14.6914 21.5053C14.7768 21.58 14.8863 21.6211 15 21.6211C15.1137 21.6211 15.2232 21.58 15.3086 21.5053C15.9558 20.9392 16.5785 20.4086 17.1282 19.9401C20.363 17.1835 22.5 15.3623 22.5 12.7006C22.5 10.2368 20.7871 8.37891 18.5156 8.37891Z" fill="white"/>
</g>
<defs>
<clipPath id="clip0">
<rect width="15" height="15" fill="white" transform="translate(7.5 7.5)"/>
</clipPath>
</defs>
</svg>
