<svg width="16" height="16" viewBox="0 0 16 16" fill="none" xmlns="http://www.w3.org/2000/svg">
<g clip-path="url(#clip0)">
<path d="M11.5156 1.37891C10.7017 1.37891 9.95542 1.63684 9.29765 2.14555C8.66703 2.63325 8.24718 3.25443 8 3.70613C7.75282 3.2544 7.33297 2.63325 6.70235 2.14555C6.04458 1.63684 5.29833 1.37891 4.48438 1.37891C2.21293 1.37891 0.5 3.23683 0.5 5.70061C0.5 8.36234 2.637 10.1835 5.87214 12.9404C6.42151 13.4086 7.04422 13.9393 7.69145 14.5053C7.77676 14.58 7.88633 14.6211 8 14.6211C8.11367 14.6211 8.22324 14.58 8.30856 14.5053C8.95584 13.9392 9.57852 13.4086 10.1282 12.9401C13.363 10.1835 15.5 8.36234 15.5 5.70061C15.5 3.23683 13.7871 1.37891 11.5156 1.37891Z" fill="white"/>
</g>
<defs>
<clipPath id="clip0">
<rect width="15" height="15" fill="white" transform="translate(0.5 0.5)"/>
</clipPath>
</defs>
</svg>
