<svg width="16" height="16" viewBox="0 0 16 16" fill="none" xmlns="http://www.w3.org/2000/svg">
<g clip-path="url(#clip0)">
<path d="M8.00001 0.5C5.24306 0.5 3 2.74306 3 5.50001C3 6.32765 3.20692 7.14825 3.60029 7.8761L7.72658 15.3389C7.78151 15.4384 7.88619 15.5 8.00001 15.5C8.11383 15.5 8.21851 15.4384 8.27344 15.3389L12.4012 7.87364C12.7931 7.14825 13 6.32762 13 5.49998C13 2.74306 10.757 0.5 8.00001 0.5ZM8.00001 8C6.62153 8 5.50002 6.87849 5.50002 5.50001C5.50002 4.12153 6.62153 3.00002 8.00001 3.00002C9.37849 3.00002 10.5 4.12153 10.5 5.50001C10.5 6.87849 9.37849 8 8.00001 8Z" fill="white"/>
</g>
<defs>
<clipPath id="clip0">
<rect width="15" height="15" fill="white" transform="translate(0.5 0.5)"/>
</clipPath>
</defs>
</svg>
