<svg width="20" height="20" viewBox="0 0 20 20" fill="none" xmlns="http://www.w3.org/2000/svg">
<path d="M19.7222 4.37231L10.3513 11.6404C10.2472 11.7188 10.1236 11.7577 10 11.7577C9.87641 11.7577 9.75281 11.7188 9.64867 11.6404L0.277813 4.37231C0.104062 4.64481 0 4.96595 0 5.31243V14.6874C0 15.6567 0.788516 16.4452 1.75781 16.4452H18.2422C19.2115 16.4452 20 15.6567 20 14.6874V5.31243C20 4.96595 19.8959 4.64481 19.7222 4.37231Z" fill="white"/>
<path d="M18.2422 3.55469H1.7578C1.57741 3.55469 1.40674 3.58988 1.2428 3.64059L10 10.4395L18.7572 3.64059C18.5933 3.58988 18.4226 3.55469 18.2422 3.55469Z" fill="white"/>
</svg>
