<svg width="16" height="16" viewBox="0 0 16 16" fill="none" xmlns="http://www.w3.org/2000/svg">
<g clip-path="url(#clip0)">
<path d="M14.2964 10.3458C13.378 10.3458 12.4763 10.2021 11.6218 9.91977C11.2031 9.77695 10.6884 9.90797 10.4329 10.1704L8.74625 11.4436C6.79027 10.3995 5.58543 9.19508 4.55559 7.25379L5.79133 5.61113C6.11238 5.29051 6.22754 4.82215 6.08957 4.3827C5.80598 3.52371 5.66191 2.62242 5.66191 1.70367C5.66195 1.03996 5.12199 0.5 4.45832 0.5H1.70363C1.03996 0.5 0.5 1.03996 0.5 1.70363C0.5 9.31105 6.68898 15.5 14.2964 15.5C14.9601 15.5 15.5 14.96 15.5 14.2964V11.5494C15.5 10.8857 14.96 10.3458 14.2964 10.3458Z" fill="white"/>
</g>
<defs>
<clipPath id="clip0">
<rect width="15" height="15" fill="white" transform="translate(0.5 0.5)"/>
</clipPath>
</defs>
</svg>
