<svg width="16" height="16" viewBox="0 0 16 16" fill="none" xmlns="http://www.w3.org/2000/svg">
<g clip-path="url(#clip0)">
<path d="M7.99998 0.5C3.85786 0.5 0.5 3.85786 0.5 7.99998C0.5 12.1421 3.85786 15.5 7.99998 15.5C12.1421 15.5 15.5 12.1421 15.5 7.99998C15.4956 3.85971 12.1403 0.504426 7.99998 0.5ZM8.53571 7.99998C8.53571 8.29586 8.29586 8.53571 7.99998 8.53571H3.71428C3.41841 8.53571 3.17856 8.29586 3.17856 7.99998C3.17856 7.70411 3.41841 7.46426 3.71428 7.46426H7.46429V3.71428C7.46429 3.41841 7.70414 3.17856 8.00002 3.17856C8.29589 3.17856 8.53571 3.41841 8.53571 3.71428V7.99998Z" fill="white"/>
</g>
<defs>
<clipPath id="clip0">
<rect width="15" height="15" fill="white" transform="translate(0.5 0.5)"/>
</clipPath>
</defs>
</svg>
