<svg width="16" height="16" viewBox="0 0 16 16" fill="none" xmlns="http://www.w3.org/2000/svg">
<g clip-path="url(#clip0)">
<path d="M8.001 0.5C5.85813 0.5 4.10645 2.25169 4.10645 4.39456C4.10645 6.53744 5.85813 8.28913 8.001 8.28913C10.1439 8.28913 11.8955 6.53744 11.8955 4.39456C11.8955 2.25169 10.1439 0.5 8.001 0.5Z" fill="white"/>
<path d="M14.6848 11.4014C14.5828 11.1463 14.4467 10.9082 14.2937 10.6871C13.5113 9.53063 12.3039 8.76532 10.9433 8.57825C10.7733 8.56125 10.5862 8.59524 10.4501 8.69729C9.73584 9.2245 8.88552 9.49661 8.00114 9.49661C7.11677 9.49661 6.26644 9.2245 5.55215 8.69729C5.41609 8.59524 5.22901 8.54423 5.05896 8.57825C3.69841 8.76532 2.47393 9.53063 1.70863 10.6871C1.55557 10.9082 1.4195 11.1633 1.31749 11.4014C1.26648 11.5035 1.28347 11.6225 1.33448 11.7245C1.47055 11.9626 1.6406 12.2008 1.79366 12.4048C2.03174 12.728 2.28685 13.0171 2.57598 13.2892C2.81407 13.5273 3.08617 13.7483 3.35831 13.9694C4.70183 14.9729 6.31749 15.5 7.98415 15.5C9.65082 15.5 11.2665 14.9728 12.61 13.9694C12.8821 13.7654 13.1542 13.5273 13.3923 13.2892C13.6644 13.0171 13.9365 12.7279 14.1746 12.4048C14.3447 12.1837 14.4978 11.9626 14.6338 11.7245C14.7188 11.6225 14.7358 11.5034 14.6848 11.4014Z" fill="white"/>
</g>
<defs>
<clipPath id="clip0">
<rect width="15" height="15" fill="white" transform="translate(0.5 0.5)"/>
</clipPath>
</defs>
</svg>
