<svg width="20" height="20" viewBox="0 0 20 20" fill="none" xmlns="http://www.w3.org/2000/svg">
<g clip-path="url(#clip0)">
<path d="M16.5958 10.8567C16.2725 10.4484 16.365 10.2667 16.5958 9.90175C16.6 9.89758 19.2692 6.20925 19.5442 4.95841L19.5458 4.95758C19.6825 4.50175 19.5458 4.16675 18.885 4.16675H16.6983C16.1417 4.16675 15.885 4.45425 15.7475 4.77591C15.7475 4.77591 14.6342 7.44092 13.0592 9.16842C12.5508 9.66758 12.3158 9.82758 12.0383 9.82758C11.9017 9.82758 11.6892 9.66758 11.6892 9.21175V4.95758C11.6892 4.41091 11.5333 4.16675 11.0725 4.16675H7.63416C7.28499 4.16675 7.07749 4.42175 7.07749 4.65925C7.07749 5.17758 7.86499 5.29675 7.94666 6.75508V9.91925C7.94666 10.6126 7.82083 10.7401 7.54166 10.7401C6.79833 10.7401 4.99416 8.06425 3.925 5.00175C3.70916 4.40758 3.49833 4.16758 2.9375 4.16758H0.749999C0.125833 4.16758 0 4.45508 0 4.77675C0 5.34508 0.743333 8.17092 3.45666 11.9042C5.265 14.4526 7.81166 15.8334 10.1283 15.8334C11.5208 15.8334 11.6908 15.5267 11.6908 14.9992C11.6908 12.5642 11.565 12.3342 12.2625 12.3342C12.5858 12.3342 13.1425 12.4942 14.4425 13.7234C15.9283 15.1809 16.1725 15.8334 17.0042 15.8334H19.1908C19.8142 15.8334 20.13 15.5267 19.9483 14.9217C19.5325 13.6492 16.7225 11.0317 16.5958 10.8567Z" fill="white"/>
</g>
<defs>
<clipPath id="clip0">
<rect width="20" height="20" fill="white"/>
</clipPath>
</defs>
</svg>
